<svg width="17" height="16" viewBox="0 0 17 16" fill="none" xmlns="http://www.w3.org/2000/svg">
<path d="M7.8334 15.3333C7.8334 15.7016 8.13189 16.0001 8.50007 16.0001C8.86825 16.0001 9.16673 15.7016 9.16673 15.3334V8.66662H15.8333C16.2015 8.66662 16.5 8.36813 16.5 7.99995C16.5 7.63177 16.2015 7.33328 15.8333 7.33328H9.16673V0.666669C9.16673 0.298481 8.86825 0 8.50007 0C8.13189 0 7.8334 0.298472 7.8334 0.666669V7.33328H1.16667C0.798481 7.33328 0.5 7.63177 0.5 7.99995C0.5 8.36813 0.798481 8.66662 1.16667 8.66662H7.8334V15.3333Z" fill="#FBFAFA"/>
</svg>
