<svg width="125" height="44" viewBox="0 0 125 44" fill="none" xmlns="http://www.w3.org/2000/svg">
<path d="M8.70973 30V12.6657H15.3455C16.5982 12.6657 17.6393 12.8632 18.4687 13.2582C19.3039 13.6475 19.9274 14.1808 20.3393 14.8579C20.7568 15.535 20.9656 16.3024 20.9656 17.1601C20.9656 17.8654 20.8302 18.4692 20.5594 18.9714C20.2885 19.4679 19.9246 19.8714 19.4675 20.1817C19.0104 20.4921 18.4998 20.715 17.9355 20.8504V21.0197C18.5506 21.0535 19.1402 21.2426 19.7045 21.5868C20.2744 21.9253 20.7399 22.405 21.1011 23.0257C21.4622 23.6463 21.6427 24.3968 21.6427 25.2771C21.6427 26.1743 21.4255 26.9812 20.991 27.6978C20.5565 28.4088 19.902 28.9702 19.0274 29.3821C18.1528 29.794 17.0524 30 15.7264 30H8.70973ZM11.8499 27.3762H15.227C16.3668 27.3762 17.1879 27.1589 17.6901 26.7244C18.1979 26.2843 18.4518 25.72 18.4518 25.0316C18.4518 24.5181 18.3249 24.0554 18.0709 23.6435C17.817 23.226 17.4559 22.8987 16.9875 22.6617C16.5192 22.4191 15.9606 22.2977 15.3117 22.2977H11.8499V27.3762ZM11.8499 20.0379H14.9562C15.4979 20.0379 15.986 19.9391 16.4205 19.7416C16.8549 19.5385 17.1963 19.2535 17.4446 18.8867C17.6985 18.5143 17.8255 18.0742 17.8255 17.5664C17.8255 16.8949 17.5885 16.3419 17.1145 15.9074C16.6462 15.4729 15.9493 15.2557 15.0239 15.2557H11.8499V20.0379Z" fill="black"/>
<path fill-rule="evenodd" clip-rule="evenodd" d="M42.0933 15.1758H28.4844V12.6689H42.0933V15.1758Z" fill="#F66135"/>
<path fill-rule="evenodd" clip-rule="evenodd" d="M42.0933 22.3389H28.4844V19.832H42.0933V22.3389Z" fill="#F66135"/>
<path fill-rule="evenodd" clip-rule="evenodd" d="M42.0933 29.502H28.4844V26.995H42.0933V29.502Z" fill="#F66135"/>
<path d="M106.669 30.7783H100.795V13.444H106.787C108.508 13.444 109.987 13.791 111.222 14.4851C112.464 15.1735 113.418 16.1638 114.083 17.456C114.749 18.7481 115.082 20.2942 115.082 22.0942C115.082 23.8999 114.746 25.4516 114.075 26.7494C113.409 28.0473 112.447 29.0432 111.189 29.7372C109.936 30.4313 108.429 30.7783 106.669 30.7783ZM103.935 28.0614H106.517C107.724 28.0614 108.731 27.8413 109.538 27.4012C110.345 26.9554 110.952 26.2924 111.358 25.4121C111.764 24.5262 111.967 23.4203 111.967 22.0942C111.967 20.7682 111.764 19.6679 111.358 18.7933C110.952 17.913 110.351 17.2556 109.555 16.8212C108.765 16.381 107.783 16.161 106.61 16.161H103.935V28.0614Z" fill="black"/>
<path d="M97.3732 13.444V30.7783H94.5801L86.4123 18.971H86.2685V30.7783H83.1283V13.444H85.9384L94.0977 25.2598H94.25V13.444H97.3732Z" fill="black"/>
<path d="M80.1596 22.1112C80.1596 23.9789 79.8097 25.5786 79.11 26.9103C78.416 28.2363 77.468 29.252 76.2661 29.9573C75.0699 30.6626 73.7128 31.0153 72.1949 31.0153C70.677 31.0153 69.3172 30.6626 68.1153 29.9573C66.919 29.2463 65.9711 28.2278 65.2714 26.9018C64.5773 25.5701 64.2303 23.9733 64.2303 22.1112C64.2303 20.2434 64.5773 18.6466 65.2714 17.3205C65.9711 15.9889 66.919 14.9704 68.1153 14.265C69.3172 13.5597 70.677 13.207 72.1949 13.207C73.7128 13.207 75.0699 13.5597 76.2661 14.265C77.468 14.9704 78.416 15.9889 79.11 17.3205C79.8097 18.6466 80.1596 20.2434 80.1596 22.1112ZM77.0025 22.1112C77.0025 20.7964 76.7965 19.6876 76.3846 18.7848C75.9783 17.8763 75.4141 17.1908 74.6918 16.7281C73.9695 16.2597 73.1373 16.0255 72.1949 16.0255C71.2526 16.0255 70.4203 16.2597 69.698 16.7281C68.9758 17.1908 68.4087 17.8763 67.9968 18.7848C67.5905 19.6876 67.3874 20.7964 67.3874 22.1112C67.3874 23.4259 67.5905 24.5375 67.9968 25.446C68.4087 26.3488 68.9758 27.0344 69.698 27.5027C70.4203 27.9654 71.2526 28.1968 72.1949 28.1968C73.1373 28.1968 73.9695 27.9654 74.6918 27.5027C75.4141 27.0344 75.9783 26.3488 76.3846 25.446C76.7965 24.5375 77.0025 23.4259 77.0025 22.1112Z" fill="black"/>
<path d="M47.681 13.444H51.2274L55.4679 21.1124H55.6372L59.8777 13.444H63.4241L57.1184 24.3118V30.7783H53.9867V24.3118L47.681 13.444Z" fill="black"/>
</svg>
