<svg width="24" height="18" viewBox="0 0 24 18" fill="none" xmlns="http://www.w3.org/2000/svg">
<g clip-path="url(#clip0_9_6914)">
<path d="M0 0H24V6H0V0Z" fill="#FF9933"/>
<path d="M0 6H24V12H0V6Z" fill="white"/>
<path d="M0 12H24V18H0V12Z" fill="#128807"/>
<path d="M12.0001 11.4C13.3256 11.4 14.4001 10.3255 14.4001 8.99998C14.4001 7.67449 13.3256 6.59998 12.0001 6.59998C10.6746 6.59998 9.6001 7.67449 9.6001 8.99998C9.6001 10.3255 10.6746 11.4 12.0001 11.4Z" fill="#000088"/>
<path d="M11.9999 11.1C13.1597 11.1 14.0999 10.1598 14.0999 8.99999C14.0999 7.8402 13.1597 6.89999 11.9999 6.89999C10.8401 6.89999 9.8999 7.8402 9.8999 8.99999C9.8999 10.1598 10.8401 11.1 11.9999 11.1Z" fill="white"/>
<path d="M12.0001 9.41999C12.232 9.41999 12.4201 9.23195 12.4201 8.99999C12.4201 8.76803 12.232 8.57999 12.0001 8.57999C11.7681 8.57999 11.5801 8.76803 11.5801 8.99999C11.5801 9.23195 11.7681 9.41999 12.0001 9.41999Z" fill="#000088"/>
<path d="M14.0677 9.38197C14.1268 9.38975 14.181 9.34812 14.1888 9.28899C14.1966 9.22985 14.155 9.1756 14.0958 9.16781C14.0367 9.16003 13.9825 9.20166 13.9747 9.26079C13.9669 9.31993 14.0085 9.37418 14.0677 9.38197Z" fill="#000088"/>
<path d="M11.9997 11.1L12.0717 9.83999L11.9997 9.23999L11.9277 9.83999L11.9997 11.1Z" fill="#000088"/>
<path d="M13.8985 9.90416C13.9536 9.92698 14.0168 9.90081 14.0396 9.84571C14.0624 9.7906 14.0362 9.72742 13.9811 9.7046C13.926 9.68177 13.8628 9.70794 13.84 9.76305C13.8172 9.81815 13.8434 9.88133 13.8985 9.90416Z" fill="#000088"/>
<path d="M11.4563 11.0285L11.852 9.83002L11.9377 9.23183L11.7129 9.79275L11.4563 11.0285Z" fill="#000088"/>
<path d="M13.5992 10.3647C13.6465 10.401 13.7143 10.3921 13.7506 10.3448C13.7869 10.2975 13.778 10.2297 13.7307 10.1934C13.6834 10.1571 13.6156 10.166 13.5793 10.2133C13.543 10.2606 13.5519 10.3284 13.5992 10.3647Z" fill="#000088"/>
<path d="M10.9497 10.8187L11.6421 9.76346L11.8797 9.20784L11.5174 9.69146L10.9497 10.8187Z" fill="#000088"/>
<path d="M13.1917 10.7323C13.2281 10.7796 13.2959 10.7886 13.3432 10.7522C13.3905 10.7159 13.3994 10.6481 13.3631 10.6008C13.3268 10.5535 13.259 10.5446 13.2117 10.5809C13.1644 10.6172 13.1554 10.685 13.1917 10.7323Z" fill="#000088"/>
<path d="M10.5145 10.4849L11.4564 9.64486L11.8297 9.16969L11.3545 9.54304L10.5145 10.4849Z" fill="#000088"/>
<path d="M12.7031 10.9818C12.7259 11.0369 12.7891 11.0631 12.8442 11.0403C12.8993 11.0174 12.9255 10.9543 12.9027 10.8992C12.8798 10.8441 12.8167 10.8179 12.7615 10.8407C12.7064 10.8635 12.6803 10.9267 12.7031 10.9818Z" fill="#000088"/>
<path d="M10.1815 10.05L11.3087 9.48236L11.7923 9.12L11.2367 9.35765L10.1815 10.05Z" fill="#000088"/>
<path d="M12.1662 11.0963C12.1739 11.1554 12.2282 11.1971 12.2873 11.1893C12.3465 11.1815 12.3881 11.1272 12.3803 11.0681C12.3725 11.009 12.3183 10.9673 12.2591 10.9751C12.2 10.9829 12.1584 11.0372 12.1662 11.0963Z" fill="#000088"/>
<path d="M9.97152 9.54353L11.2072 9.28697L11.7681 9.06213L11.17 9.14788L9.97152 9.54353Z" fill="#000088"/>
<path d="M11.6179 11.0679C11.6102 11.127 11.6518 11.1813 11.7109 11.1891C11.7701 11.1969 11.8243 11.1552 11.8321 11.0961C11.8399 11.037 11.7983 10.9827 11.7391 10.9749C11.68 10.9671 11.6257 11.0088 11.6179 11.0679Z" fill="#000088"/>
<path d="M9.89977 9.00001L11.1598 9.07201L11.7598 9.00001L11.1598 8.92801L9.89977 9.00001Z" fill="#000088"/>
<path d="M11.096 10.8986C11.0732 10.9537 11.0994 11.0168 11.1545 11.0397C11.2096 11.0625 11.2728 11.0363 11.2956 10.9812C11.3184 10.9261 11.2922 10.8629 11.2371 10.8401C11.182 10.8173 11.1189 10.8435 11.096 10.8986Z" fill="#000088"/>
<path d="M9.97136 8.45646L11.1698 8.85212L11.768 8.93786L11.2071 8.71303L9.97136 8.45646Z" fill="#000088"/>
<path d="M10.6354 10.5999C10.5991 10.6472 10.6081 10.715 10.6554 10.7513C10.7027 10.7876 10.7705 10.7787 10.8068 10.7313C10.8431 10.684 10.8342 10.6162 10.7869 10.5799C10.7396 10.5436 10.6718 10.5525 10.6354 10.5999Z" fill="#000088"/>
<path d="M10.1813 7.94998L11.2365 8.64233L11.7921 8.87998L11.3085 8.51763L10.1813 7.94998Z" fill="#000088"/>
<path d="M10.2672 10.1921C10.2199 10.2285 10.211 10.2962 10.2473 10.3436C10.2836 10.3909 10.3514 10.3998 10.3987 10.3635C10.446 10.3272 10.4549 10.2594 10.4186 10.2121C10.3823 10.1648 10.3145 10.1558 10.2672 10.1921Z" fill="#000088"/>
<path d="M10.5147 7.51508L11.3548 8.45695L11.8299 8.8303L11.4566 8.35512L10.5147 7.51508Z" fill="#000088"/>
<path d="M10.0182 9.70316C9.96314 9.72599 9.93697 9.78916 9.9598 9.84427C9.98262 9.89938 10.0458 9.92554 10.1009 9.90272C10.156 9.87989 10.1822 9.81672 10.1594 9.76161C10.1365 9.7065 10.0734 9.68034 10.0182 9.70316Z" fill="#000088"/>
<path d="M10.95 7.18133L11.5177 8.30852L11.88 8.79213L11.6424 8.23652L10.95 7.18133Z" fill="#000088"/>
<path d="M9.90379 9.16625C9.84466 9.17403 9.80303 9.22828 9.81081 9.28742C9.8186 9.34656 9.87285 9.38818 9.93199 9.3804C9.99112 9.37261 10.0328 9.31836 10.025 9.25923C10.0172 9.20009 9.96293 9.15846 9.90379 9.16625Z" fill="#000088"/>
<path d="M11.4564 6.97156L11.7129 8.20726L11.9378 8.76818L11.852 8.16999L11.4564 6.97156Z" fill="#000088"/>
<path d="M9.93186 8.61803C9.87272 8.61025 9.81847 8.65188 9.81069 8.71101C9.8029 8.77015 9.84453 8.8244 9.90367 8.83219C9.9628 8.83997 10.0171 8.79834 10.0248 8.73921C10.0326 8.68007 9.991 8.62582 9.93186 8.61803Z" fill="#000088"/>
<path d="M11.9998 6.90001L11.9278 8.16001L11.9998 8.76001L12.0718 8.16001L11.9998 6.90001Z" fill="#000088"/>
<path d="M10.101 8.09584C10.0459 8.07302 9.98276 8.09919 9.95994 8.15429C9.93711 8.2094 9.96328 8.27258 10.0184 8.2954C10.0735 8.31823 10.1367 8.29206 10.1595 8.23695C10.1823 8.18185 10.1562 8.11867 10.101 8.09584Z" fill="#000088"/>
<path d="M12.5432 6.97155L12.1475 8.16998L12.0618 8.76817L12.2866 8.20725L12.5432 6.97155Z" fill="#000088"/>
<path d="M10.4003 7.63526C10.353 7.59895 10.2852 7.60788 10.2489 7.6552C10.2126 7.70252 10.2215 7.77032 10.2688 7.80663C10.3161 7.84294 10.3839 7.83401 10.4202 7.78669C10.4565 7.73937 10.4476 7.67158 10.4003 7.63526Z" fill="#000088"/>
<path d="M13.0498 7.18135L12.3574 8.23654L12.1198 8.79216L12.4821 8.30854L13.0498 7.18135Z" fill="#000088"/>
<path d="M10.8078 7.26769C10.7715 7.22037 10.7037 7.21144 10.6563 7.24775C10.609 7.28406 10.6001 7.35186 10.6364 7.39918C10.6727 7.4465 10.7405 7.45543 10.7878 7.41912C10.8352 7.38281 10.8441 7.31501 10.8078 7.26769Z" fill="#000088"/>
<path d="M13.485 7.5151L12.5431 8.35514L12.1698 8.83031L12.645 8.45696L13.485 7.5151Z" fill="#000088"/>
<path d="M11.2969 7.01818C11.2741 6.96308 11.2109 6.93691 11.1558 6.95973C11.1007 6.98256 11.0745 7.04574 11.0973 7.10084C11.1202 7.15595 11.1833 7.18212 11.2385 7.15929C11.2936 7.13647 11.3197 7.07329 11.2969 7.01818Z" fill="#000088"/>
<path d="M13.8185 7.95L12.6913 8.51764L12.2077 8.88L12.7633 8.64235L13.8185 7.95Z" fill="#000088"/>
<path d="M11.8338 6.9037C11.8261 6.84456 11.7718 6.80294 11.7127 6.81072C11.6535 6.81851 11.6119 6.87276 11.6197 6.93189C11.6275 6.99103 11.6817 7.03266 11.7409 7.02487C11.8 7.01709 11.8416 6.96284 11.8338 6.9037Z" fill="#000088"/>
<path d="M14.0285 8.45647L12.7928 8.71303L12.2319 8.93787L12.83 8.85212L14.0285 8.45647Z" fill="#000088"/>
<path d="M12.3821 6.9321C12.3898 6.87297 12.3482 6.81872 12.2891 6.81093C12.2299 6.80315 12.1757 6.84477 12.1679 6.90391C12.1601 6.96305 12.2017 7.0173 12.2609 7.02508C12.32 7.03287 12.3743 6.99124 12.3821 6.9321Z" fill="#000088"/>
<path d="M14.1002 8.99999L12.8402 8.92799L12.2402 8.99999L12.8402 9.07199L14.1002 8.99999Z" fill="#000088"/>
<path d="M12.904 7.10144C12.9268 7.04634 12.9006 6.98316 12.8455 6.96033C12.7904 6.93751 12.7272 6.96368 12.7044 7.01878C12.6816 7.07389 12.7078 7.13706 12.7629 7.15989C12.818 7.18272 12.8811 7.15655 12.904 7.10144Z" fill="#000088"/>
<path d="M14.0286 9.54354L12.8302 9.14788L12.232 9.06214L12.7929 9.28697L14.0286 9.54354Z" fill="#000088"/>
<path d="M13.3641 7.40015C13.4004 7.35283 13.3914 7.28503 13.3441 7.24872C13.2968 7.21241 13.229 7.22134 13.1927 7.26866C13.1564 7.31598 13.1653 7.38378 13.2126 7.42009C13.26 7.4564 13.3278 7.44747 13.3641 7.40015Z" fill="#000088"/>
<path d="M13.8182 10.05L12.763 9.35767L12.2074 9.12002L12.691 9.48237L13.8182 10.05Z" fill="#000088"/>
<path d="M13.7323 7.80786C13.7796 7.77155 13.7886 7.70375 13.7522 7.65643C13.7159 7.60911 13.6481 7.60018 13.6008 7.63649C13.5535 7.6728 13.5446 7.7406 13.5809 7.78792C13.6172 7.83524 13.685 7.84417 13.7323 7.80786Z" fill="#000088"/>
<path d="M13.4848 10.4849L12.6447 9.54305L12.1696 9.1697L12.5429 9.64488L13.4848 10.4849Z" fill="#000088"/>
<path d="M13.9813 8.29684C14.0364 8.27401 14.0625 8.21084 14.0397 8.15573C14.0169 8.10062 13.9537 8.07446 13.8986 8.09728C13.8435 8.12011 13.8173 8.18328 13.8402 8.23839C13.863 8.2935 13.9262 8.31966 13.9813 8.29684Z" fill="#000088"/>
<path d="M13.0495 10.8187L12.4818 9.69148L12.1195 9.20787L12.3571 9.76348L13.0495 10.8187Z" fill="#000088"/>
<path d="M14.0957 8.83375C14.1549 8.82597 14.1965 8.77172 14.1887 8.71258C14.1809 8.65344 14.1267 8.61182 14.0675 8.6196C14.0084 8.62739 13.9668 8.68164 13.9745 8.74077C13.9823 8.79991 14.0366 8.84154 14.0957 8.83375Z" fill="#000088"/>
<path d="M12.5431 11.0284L12.2866 9.79274L12.0617 9.23182L12.1475 9.83001L12.5431 11.0284Z" fill="#000088"/>
</g>
<defs>
<clipPath id="clip0_9_6914">
<rect width="24" height="18" fill="white"/>
</clipPath>
</defs>
</svg>
